<?xml version="1.0" encoding="utf-8"?>
<!-- Generator: Adobe Illustrator 24.0.2, SVG Export Plug-In . SVG Version: 6.00 Build 0)  -->
<svg version="1.1" id="Capa_1" xmlns="http://www.w3.org/2000/svg" xmlns:xlink="http://www.w3.org/1999/xlink" x="0px" y="0px"
	 viewBox="0 0 1280 720" style="enable-background:new 0 0 1280 720;" xml:space="preserve">
<style type="text/css">
	.st0{fill:#E50914;}
</style>
<g>
	<g>
		<path class="st0" d="M515.81,360.85c1.2,8.58,0.53,16.11-1.91,22.6c-2.45,6.49-6.24,11.74-11.37,15.77
			c-5.13,4.04-11.15,6.63-18.12,7.84c-7.02,1.22-13.59,0.79-19.78-1.29c-6.19-2.08-11.52-5.75-16.01-11.05
			c-4.48-5.29-7.64-12.15-9.39-20.61c-1.76-8.48-1.58-16.05,0.62-22.7c2.2-6.65,5.96-12.13,11.31-16.4
			c5.34-4.27,11.8-7.08,19.32-8.38c7.46-1.29,14.47-0.81,20.94,1.41c6.47,2.22,11.87,6.12,16.18,11.63
			C511.89,345.2,514.61,352.27,515.81,360.85z M498.22,363.44c-0.86-5.54-2.45-10.09-4.79-13.62c-2.34-3.53-5.26-6.03-8.76-7.47
			c-3.5-1.44-7.4-1.8-11.67-1.06c-4.27,0.74-7.82,2.39-10.64,4.93c-2.81,2.54-4.73,5.87-5.75,9.99c-1.02,4.12-0.99,8.93,0.07,14.44
			c1.06,5.51,2.8,10,5.21,13.46c2.41,3.47,5.32,5.89,8.73,7.29c3.41,1.4,7.15,1.74,11.23,1.03c4.09-0.71,7.49-2.28,10.23-4.75
			c2.74-2.47,4.66-5.73,5.76-9.8C498.95,373.79,499.08,368.98,498.22,363.44z"/>
		<path class="st0" d="M533.71,398.52c-3.38-26.27-6.76-52.53-10.14-78.8c5.99-0.77,11.98-1.5,17.97-2.18
			c1.32,11.6,2.64,23.2,3.96,34.81c0.36-0.04,0.73-0.08,1.09-0.12c8.6-12.72,17.51-25.35,26.71-37.88c7.2-0.63,14.4-1.2,21.61-1.7
			c-9.73,12.57-19.14,25.25-28.24,38.03c11.75,13.57,23.12,27.3,34.13,41.2c-6.73,0.47-13.45,1-20.17,1.58
			c-8.22-10.21-16.65-20.33-25.28-30.36c-2.48,3.65-4.94,7.3-7.37,10.96c0.85,7.48,1.7,14.95,2.55,22.43
			C544.92,397.12,539.31,397.8,533.71,398.52z"/>
		<path class="st0" d="M657.07,309.88c6.02-0.12,12.04-0.19,18.07-0.21c0.08,17.2,0.16,34.4,0.23,51.59
			c0.03,5.79-1.37,10.87-4.13,15.23c-2.77,4.37-6.62,7.79-11.55,10.3c-4.94,2.51-10.68,3.85-17.28,4.07
			c-6.63,0.22-12.46-0.74-17.56-2.91c-5.09-2.17-9.16-5.33-12.2-9.51c-3.04-4.17-4.76-9.14-5.12-14.92
			c-1.07-17.16-2.13-34.33-3.2-51.49c6.01-0.37,12.03-0.7,18.05-0.99c0.79,16.7,1.58,33.4,2.38,50.1c0.14,3.02,0.96,5.68,2.43,7.96
			c1.47,2.29,3.47,4.05,6.01,5.29c2.53,1.24,5.44,1.81,8.73,1.7c3.32-0.11,6.18-0.87,8.61-2.27c2.43-1.41,4.3-3.3,5.62-5.68
			c1.32-2.38,1.95-5.08,1.89-8.11C657.71,343.31,657.39,326.6,657.07,309.88z"/>
		<path class="st0" d="M689.39,389.13c0.2-26.48,0.4-52.96,0.6-79.44c18.86,0.14,37.72,0.72,56.56,1.73
			c-0.25,4.61-0.49,9.22-0.74,13.83c-12.68-0.68-25.37-1.16-38.06-1.44c-0.14,6.31-0.28,12.62-0.42,18.93
			c11.28,0.25,22.55,0.66,33.82,1.23c-0.23,4.61-0.47,9.22-0.7,13.83c-11.14-0.56-22.28-0.97-33.42-1.22
			c-0.24,10.94-0.49,21.87-0.73,32.81C700.66,389.26,695.02,389.17,689.39,389.13z"/>
		<path class="st0" d="M753.64,391.41c1.68-26.43,3.36-52.86,5.04-79.29c6.01,0.38,12.03,0.81,18.03,1.28
			c-1.71,21.8-3.41,43.6-5.12,65.4c11.53,0.9,23.06,1.98,34.57,3.23c-0.5,4.59-0.99,9.18-1.49,13.77
			C787.69,393.96,770.67,392.5,753.64,391.41z"/>
		<path class="st0" d="M843.11,320.42c-3.5,26.25-6.99,52.5-10.49,78.75c-5.6-0.75-11.2-1.45-16.8-2.11
			c3.11-26.3,6.22-52.6,9.33-78.9C831.13,318.87,837.12,319.62,843.11,320.42z"/>
		<path class="st0" d="M874.69,325.04c4.27,9.82,8.4,19.66,12.41,29.52c0.21,0.04,0.43,0.07,0.64,0.11
			c7.14-7.92,14.39-15.77,21.77-23.56c6.71,1.27,13.42,2.6,20.11,3.98c-11.24,11.2-22.21,22.55-32.92,34.04
			c6.09,14.59,11.89,29.22,17.38,43.88c-6.38-1.32-12.76-2.59-19.16-3.8c-3.71-9.9-7.55-19.79-11.53-29.66
			c-0.21-0.04-0.42-0.07-0.63-0.11c-7.08,7.94-14.04,15.94-20.88,24.01c-6.39-1.02-12.79-1.98-19.2-2.89
			c10.14-11.93,20.56-23.73,31.25-35.39c-6.23-14.44-12.76-28.84-19.57-43.19C861.15,322.94,867.92,323.96,874.69,325.04z"/>
	</g>
</g>
</svg>
