<?xml version="1.0" encoding="utf-8"?>
<!-- Generator: Adobe Illustrator 24.0.2, SVG Export Plug-In . SVG Version: 6.00 Build 0)  -->
<svg version="1.1" id="Capa_1" xmlns="http://www.w3.org/2000/svg" xmlns:xlink="http://www.w3.org/1999/xlink" x="0px" y="0px"
	 viewBox="0 0 283.46 87" style="enable-background:new 0 0 283.46 87;" xml:space="preserve">
<style type="text/css">
	.st0{fill:#E50914;}
	.st1{fill:#FFFFFF;}
	.st2{fill:none;stroke:#FFFFFF;stroke-width:6;stroke-miterlimit:10;}
</style>
<g>
	<g>
		<path class="st0" d="M45.41,47.2c0.69,4.95,0.31,9.29-1.1,13.04c-1.41,3.75-3.6,6.77-6.56,9.09c-2.96,2.33-6.43,3.82-10.45,4.52
			c-4.05,0.7-7.84,0.46-11.41-0.74c-3.57-1.2-6.64-3.32-9.23-6.37c-2.59-3.05-4.41-7.01-5.42-11.88C0.23,49.96,0.33,45.6,1.6,41.77
			c1.27-3.83,3.44-6.99,6.52-9.46c3.08-2.46,6.81-4.08,11.14-4.83c4.3-0.75,8.34-0.47,12.07,0.81c3.73,1.28,6.84,3.53,9.33,6.71
			C43.15,38.18,44.72,42.26,45.41,47.2z M35.27,48.7c-0.5-3.2-1.41-5.82-2.76-7.86c-1.35-2.04-3.03-3.48-5.05-4.31
			c-2.02-0.83-4.27-1.04-6.73-0.61c-2.46,0.43-4.51,1.38-6.13,2.84c-1.62,1.46-2.73,3.39-3.31,5.76c-0.59,2.37-0.57,5.15,0.04,8.33
			c0.61,3.18,1.62,5.76,3.01,7.76c1.39,2,3.07,3.4,5.03,4.21c1.97,0.81,4.12,1,6.48,0.6c2.36-0.41,4.32-1.32,5.9-2.74
			c1.58-1.42,2.68-3.3,3.32-5.65C35.69,54.67,35.76,51.9,35.27,48.7z"/>
		<path class="st1" d="M55.74,68.93c-1.95-15.15-3.9-30.3-5.85-45.44c3.45-0.44,6.91-0.86,10.36-1.26
			c0.76,6.69,1.52,13.38,2.28,20.07c0.21-0.02,0.42-0.05,0.63-0.07c4.96-7.34,10.1-14.62,15.4-21.85c4.15-0.36,8.31-0.69,12.46-0.98
			c-5.61,7.25-11.04,14.56-16.28,21.93c6.77,7.82,13.34,15.75,19.68,23.76c-3.88,0.27-7.76,0.57-11.63,0.91
			c-4.74-5.89-9.6-11.73-14.58-17.51c-1.43,2.1-2.85,4.21-4.25,6.32c0.49,4.31,0.98,8.62,1.47,12.94
			C62.2,68.12,58.96,68.51,55.74,68.93z"/>
		<path class="st0" d="M126.88,17.81c3.47-0.07,6.95-0.11,10.42-0.12c0.04,9.92,0.09,19.84,0.13,29.76
			c0.01,3.34-0.79,6.27-2.38,8.78c-1.6,2.52-3.82,4.49-6.66,5.94c-2.85,1.45-6.16,2.22-9.97,2.35c-3.82,0.13-7.19-0.42-10.13-1.68
			c-2.94-1.25-5.28-3.07-7.04-5.48c-1.75-2.41-2.75-5.27-2.95-8.61c-0.62-9.9-1.23-19.8-1.85-29.7c3.47-0.22,6.94-0.41,10.41-0.57
			c0.46,9.63,0.91,19.26,1.37,28.89c0.08,1.74,0.55,3.27,1.4,4.59c0.85,1.32,2,2.34,3.46,3.05c1.46,0.72,3.14,1.04,5.03,0.98
			c1.91-0.06,3.57-0.5,4.97-1.31c1.4-0.81,2.48-1.9,3.24-3.28c0.76-1.37,1.12-2.93,1.09-4.68
			C127.25,37.09,127.06,27.45,126.88,17.81z"/>
		<path class="st0" d="M145.52,63.52c0.12-15.27,0.23-30.54,0.35-45.82c10.88,0.08,21.75,0.41,32.62,1
			c-0.14,2.66-0.29,5.32-0.43,7.98c-7.31-0.39-14.63-0.67-21.95-0.83c-0.08,3.64-0.16,7.28-0.24,10.92c6.5,0.14,13,0.38,19.5,0.71
			c-0.13,2.66-0.27,5.32-0.4,7.98c-6.42-0.32-12.85-0.56-19.28-0.7c-0.14,6.31-0.28,12.61-0.42,18.92
			C152.01,63.59,148.76,63.54,145.52,63.52z"/>
		<path class="st0" d="M182.57,64.83c0.97-15.24,1.94-30.48,2.9-45.73c3.47,0.22,6.93,0.47,10.4,0.74
			c-0.98,12.57-1.97,25.14-2.95,37.72c6.65,0.52,13.3,1.14,19.94,1.86c-0.29,2.65-0.57,5.29-0.86,7.94
			C202.21,66.3,192.39,65.45,182.57,64.83z"/>
		<path class="st0" d="M234.17,23.89c-2.02,15.14-4.03,30.28-6.05,45.42c-3.23-0.43-6.46-0.84-9.69-1.22
			c1.79-15.17,3.59-30.33,5.38-45.5C227.26,22.99,230.72,23.43,234.17,23.89z"/>
		<path class="st0" d="M252.38,26.55c2.46,5.66,4.85,11.34,7.16,17.03c0.12,0.02,0.25,0.04,0.37,0.07c4.11-4.57,8.3-9.1,12.55-13.59
			c3.87,0.73,7.74,1.5,11.6,2.3c-6.48,6.46-12.81,13-18.99,19.63c3.51,8.41,6.85,16.85,10.03,25.3c-3.68-0.76-7.36-1.49-11.05-2.19
			c-2.14-5.71-4.36-11.41-6.65-17.1c-0.12-0.02-0.24-0.04-0.36-0.06c-4.08,4.58-8.1,9.2-12.04,13.85
			c-3.69-0.59-7.38-1.14-11.07-1.67c5.85-6.88,11.86-13.69,18.02-20.41c-3.59-8.33-7.36-16.63-11.29-24.91
			C244.58,25.34,248.48,25.93,252.38,26.55z"/>
	</g>
</g>
<g>
	<path class="st2" d="M6.17,24.72c88.94-18.13,180.59-17.84,269.3,0.81"/>
</g>
<g>
	<path class="st2" d="M7,84.22c88.94-18.13,180.59-17.84,269.3,0.81"/>
</g>
</svg>
